<svg width="55" height="64" viewBox="0 0 55 64" fill="none" xmlns="http://www.w3.org/2000/svg">
<path d="M19.9989 13.6794C19.4177 13.6794 18.9465 14.1507 18.9465 14.7319V19.9939H15.7893C15.2081 19.9939 14.7369 20.4651 14.7369 21.0463V48.409C14.7369 48.9902 15.2081 49.4614 15.7893 49.4614H18.9465V53.671C18.9465 54.2522 19.4177 54.7234 19.9989 54.7234C20.5801 54.7234 21.0513 54.2522 21.0513 53.671V49.4614H24.2085C24.7897 49.4614 25.261 48.9902 25.261 48.409V21.0463C25.261 20.4651 24.7897 19.9939 24.2085 19.9939H21.0513V14.7319C21.0513 14.1507 20.5801 13.6794 19.9989 13.6794ZM23.1561 22.0987V47.3566H16.8417V22.0987H23.1561Z" fill="white"/>
<path d="M34.7293 9.47021C34.1481 9.47021 33.6769 9.94144 33.6769 10.5226V15.7847H30.5196C29.9384 15.7847 29.4672 16.2559 29.4672 16.8371V44.1997C29.4672 44.7809 29.9384 45.2521 30.5196 45.2521H33.6769V49.4618C33.6769 50.043 34.1481 50.5142 34.7293 50.5142C35.3105 50.5142 35.7817 50.043 35.7817 49.4618V45.2521H38.9389C39.5201 45.2521 39.9913 44.7809 39.9913 44.1997V16.8371C39.9913 16.2559 39.5201 15.7847 38.9389 15.7847H35.7817V10.5226C35.7817 9.94144 35.3105 9.47021 34.7293 9.47021ZM37.8865 17.8895V43.1473H31.572V17.8895H37.8865Z" fill="white"/>
<path d="M49.4661 22.0994C48.885 22.0994 48.4137 22.5706 48.4137 23.1518V28.4138H45.2565C44.6753 28.4138 44.2041 28.885 44.2041 29.4662V56.8289C44.2041 57.4101 44.6753 57.8813 45.2565 57.8813H48.4137V62.0909C48.4137 62.6721 48.885 63.1433 49.4661 63.1433C50.0473 63.1433 50.5186 62.6721 50.5186 62.0909V57.8813H53.6758C54.257 57.8813 54.7282 57.4101 54.7282 56.8289V29.4662C54.7282 28.885 54.257 28.4138 53.6758 28.4138H50.5186V23.1518C50.5186 22.5706 50.0473 22.0994 49.4661 22.0994ZM52.6234 30.5186V55.7765H46.3089V30.5186H52.6234Z" fill="white"/>
<path d="M5.26205 0C4.68086 0 4.20964 0.471221 4.20964 1.05241V6.31446H1.05241C0.47122 6.31446 0 6.78568 0 7.36687V34.7295C0 35.3107 0.47122 35.7819 1.05241 35.7819H4.20964V39.9916C4.20964 40.5728 4.68086 41.044 5.26205 41.044C5.84324 41.044 6.31446 40.5728 6.31446 39.9916V35.7819H9.47169C10.0529 35.7819 10.5241 35.3107 10.5241 34.7295V7.36687C10.5241 6.78568 10.0529 6.31446 9.47169 6.31446H6.31446V1.05241C6.31446 0.471221 5.84324 0 5.26205 0ZM8.41928 8.41928V33.6771H2.10482V8.41928H8.41928Z" fill="white"/>
</svg>
