<svg width="65" height="63" viewBox="0 0 65 63" fill="none" xmlns="http://www.w3.org/2000/svg">
<g clip-path="url(#clip0)">
<path d="M25.4348 62.8874C39.4586 62.8874 50.8696 51.4764 50.8696 37.4526C50.8696 30.8406 48.3101 24.7618 44.151 20.2827L48.95 15.4837C49.11 15.697 49.3766 15.9103 49.6965 15.9103L59.7211 17.03C59.7745 17.03 59.7745 17.03 59.8278 17.03C60.361 17.03 60.8409 16.6035 60.8942 16.0702C60.9476 15.4837 60.521 14.9505 59.9344 14.8972L50.5497 13.884L53.3225 11.1113C53.3758 11.1113 53.4291 11.1113 53.4824 11.1646L63.507 12.2844C63.5604 12.2844 63.5604 12.2844 63.6137 12.2844C64.1469 12.2844 64.6268 11.8578 64.6801 11.3245C64.7335 10.738 64.3069 10.2048 63.7203 10.1515L55.2421 9.24497L60.361 4.12602C60.7876 3.69944 60.7876 3.05957 60.361 2.63299C59.9344 2.20641 59.2946 2.20641 58.868 2.63299L53.5891 7.91191L50.763 0.660055C50.5497 0.12683 49.9098 -0.139782 49.3766 0.0735079C48.8434 0.286798 48.5768 0.926667 48.79 1.45989L51.8827 9.40494C51.8827 9.45826 51.9361 9.45826 51.9361 9.45826L49.6432 11.7511L46.8704 4.28598C46.6571 3.75276 46.0706 3.43282 45.4841 3.64611C44.9508 3.8594 44.6309 4.44595 44.8442 5.0325L47.9369 13.2975C47.9369 13.3508 47.9902 13.3508 47.9902 13.4041L42.6046 18.7364C38.0722 14.5772 32.0468 12.0177 25.4348 12.0177C11.411 12.0177 0 23.4287 0 37.4526C0 51.4764 11.411 62.8874 25.4348 62.8874ZM25.4348 14.1506C31.4602 14.1506 37.0058 16.4435 41.1116 20.2294L36.0993 25.2417C33.2732 22.7356 29.5406 21.2425 25.4348 21.2425C16.53 21.2425 9.27811 28.4944 9.27811 37.3992C9.27811 46.3041 16.53 53.5559 25.4348 53.5559C34.3397 53.5559 41.5915 46.3041 41.5915 37.3992C41.5915 33.3467 40.0452 29.6141 37.5923 26.7347L42.6046 21.7224C46.3905 25.9349 48.6834 31.4271 48.6834 37.4526C48.6834 50.3033 38.2322 60.7545 25.3815 60.7545C12.5841 60.7545 2.1329 50.3033 2.1329 37.4526C2.1329 24.6018 12.5841 14.1506 25.4348 14.1506ZM24.6883 38.1991C24.9016 38.4124 25.1682 38.519 25.4348 38.519C25.7014 38.519 25.968 38.4124 26.1813 38.1991L29.4873 34.8931C29.9672 35.6396 30.2338 36.4927 30.2338 37.3992C30.2338 40.012 28.1009 42.1449 25.4881 42.1449C22.8753 42.1449 20.7424 40.012 20.7424 37.3992C20.7424 34.7864 22.8753 32.6535 25.4881 32.6535C26.3946 32.6535 27.3011 32.9201 27.9943 33.4L24.6883 36.706C24.2617 37.1326 24.2617 37.8258 24.6883 38.1991ZM29.4873 31.907C28.3675 31.0539 26.9278 30.574 25.4348 30.574C21.6489 30.574 18.5562 33.6667 18.5562 37.4526C18.5562 41.2384 21.6489 44.3312 25.4348 44.3312C29.2207 44.3312 32.3134 41.2384 32.3134 37.4526C32.3134 35.9595 31.8335 34.5198 30.9803 33.4L36.046 28.3344C38.1789 30.7872 39.4586 33.9866 39.4586 37.4526C39.4586 45.1843 33.1666 51.4764 25.4348 51.4764C17.7031 51.4764 11.411 45.1843 11.411 37.4526C11.3577 29.7208 17.6497 23.4287 25.4348 23.4287C28.9008 23.4287 32.1001 24.7085 34.553 26.8414L29.4873 31.907Z" fill="white"/>
<path d="M52.6423 48.4234C52.3239 48.1188 51.8188 48.1301 51.5142 48.4485C51.2097 48.7669 51.2209 49.272 51.5393 49.5766L52.6423 48.4234ZM60.7149 58.3532C61.0333 58.6578 61.5384 58.6466 61.843 58.3281C62.1475 58.0097 62.1363 57.5046 61.8179 57.2L60.7149 58.3532ZM61.8179 49.5766C62.1363 49.272 62.1475 48.7669 61.843 48.4485C61.5384 48.1301 61.0333 48.1188 60.7149 48.4234L61.8179 49.5766ZM51.5393 57.2C51.2209 57.5046 51.2097 58.0097 51.5142 58.3281C51.8188 58.6466 52.3239 58.6578 52.6423 58.3532L51.5393 57.2ZM51.5393 49.5766L60.7149 58.3532L61.8179 57.2L52.6423 48.4234L51.5393 49.5766ZM60.7149 48.4234L51.5393 57.2L52.6423 58.3532L61.8179 49.5766L60.7149 48.4234Z" fill="white"/>
</g>
<defs>
<clipPath id="clip0">
<rect width="64.5735" height="62.9205" fill="white"/>
</clipPath>
</defs>
</svg>
