<svg width="49" height="63" viewBox="0 0 49 63" fill="none" xmlns="http://www.w3.org/2000/svg">
<g clip-path="url(#clip0)">
<path d="M1.25829 29.8402C0.66234 29.7738 0.13261 30.2389 0.0663937 30.837C0.000177473 31.4351 0.397475 31.9668 0.927205 32.0997C5.16504 33.0301 9.00558 33.4288 12.515 33.4288C29.0029 33.4288 37.5448 23.9257 43.6367 13.8908L47.2786 16.0839C47.6759 16.2832 48.1394 16.2832 48.5367 16.0174C48.934 15.7516 49.0664 15.3529 49.0002 14.8877L46.6164 0.931978C46.5502 0.599699 46.3515 0.267421 46.0205 0.134509C45.6894 0.00159777 45.3583 -0.0648579 45.0272 0.0680535L32.5123 5.38451C32.115 5.58388 31.8502 5.98261 31.784 6.38135C31.784 6.84654 32.0488 7.24527 32.4461 7.44464L36.2205 9.3054C26.2218 31.5681 2.25153 29.9067 1.25829 29.8402ZM38.8029 9.23894C39.0678 8.70729 38.8029 8.04274 38.2732 7.77692L35.7569 6.51426L44.6299 2.72628L46.3515 12.8275L43.8353 11.2991C43.5705 11.1662 43.2394 11.0997 42.9745 11.1662C42.7096 11.2326 42.4448 11.432 42.2461 11.6978C36.1542 22.1313 28.0759 31.4351 11.7867 31.1029C20.5272 29.3086 32.5786 23.9921 38.8029 9.23894Z" fill="white"/>
<path d="M4.90221 44.5266C2.71707 44.5266 0.995453 46.7196 0.995453 49.4443V58.0836C0.995453 60.8747 2.71707 63.0013 4.90221 63.0013H10.2657C12.4509 63.0013 14.1725 60.8083 14.1725 58.0836V49.4443C14.1725 46.6532 12.4509 44.5266 10.2657 44.5266H4.90221ZM11.9211 49.4443V58.0836C11.9211 59.4791 11.1265 60.7418 10.2657 60.7418H4.90221C4.0414 60.7418 3.2468 59.5456 3.2468 58.0836V49.4443C3.2468 48.0488 4.0414 46.7861 4.90221 46.7861H10.2657C11.1927 46.7861 11.9211 48.0488 11.9211 49.4443Z" fill="white"/>
<path d="M21.1888 36.418C19.0037 36.418 17.2821 38.611 17.2821 41.3357V58.0825C17.2821 60.8737 19.0037 63.0002 21.1888 63.0002H26.5524C28.7375 63.0002 30.4591 60.8072 30.4591 58.0825V41.3357C30.4591 38.5446 28.7375 36.418 26.5524 36.418H21.1888ZM28.2078 41.3357V58.0825C28.2078 59.4781 27.4132 60.7407 26.5524 60.7407H21.1888C20.328 60.7407 19.5334 59.5445 19.5334 58.0825V41.3357C19.5334 39.9401 20.328 38.6775 21.1888 38.6775H26.5524C27.4132 38.6775 28.2078 39.9401 28.2078 41.3357Z" fill="white"/>
<path d="M44.4334 26.7148H39.0698C36.8847 26.7148 35.1631 28.9079 35.1631 31.6326V58.0819C35.1631 60.8731 36.8847 62.9997 39.0698 62.9997H44.4334C46.6185 62.9997 48.3401 60.8066 48.3401 58.0819V31.6326C48.4063 28.8414 46.6847 26.7148 44.4334 26.7148ZM46.0888 58.0819C46.0888 59.4775 45.2942 60.7402 44.4334 60.7402H39.0698C38.209 60.7402 37.4144 59.544 37.4144 58.0819V31.6326C37.4144 30.237 38.209 28.9743 39.0698 28.9743H44.4334C45.2942 28.9743 46.0888 30.1705 46.0888 31.6326V58.0819Z" fill="white"/>
</g>
<defs>
<clipPath id="clip0">
<rect width="49" height="63" fill="white"/>
</clipPath>
</defs>
</svg>
