<svg width="57" height="63" viewBox="0 0 57 63" fill="none" xmlns="http://www.w3.org/2000/svg">
<g clip-path="url(#clip0)">
<path d="M0.000427246 49.7998C0.000427246 54.3271 1.08675 57.5791 3.2594 59.6834C6.13496 62.4253 10.5441 62.9992 15.7841 62.9992C17.6372 62.9992 19.5542 62.9354 21.5352 62.8717C23.7717 62.8079 26.0722 62.6804 28.4365 62.6804C30.2897 62.6804 32.0789 62.7441 33.8681 62.7441C42.2392 62.9354 49.4601 63.0629 53.5497 59.0457C55.8502 56.814 56.9365 53.4344 56.9365 48.8433C56.9365 37.8119 50.0352 23.1459 38.9802 18.7461C38.8524 18.6824 38.7246 18.6824 38.5968 18.6824H18.404C18.2762 18.6824 18.1484 18.6824 18.0206 18.7461C7.22128 23.0184 0.000427246 38.2583 0.000427246 49.7998ZM18.5957 20.8504H38.3412C47.4152 24.5488 54.7639 37.0467 54.7639 48.8433C54.7639 52.8605 53.8693 55.6662 52.0161 57.4516C48.5654 60.8312 41.7919 60.7036 33.932 60.5123C32.1428 60.4486 30.3536 60.4486 28.4365 60.4486C26.0083 60.4486 23.7078 60.5123 21.4074 60.6399C14.1226 60.8949 7.86029 61.15 4.72913 58.0893C3.00379 56.4314 2.10917 53.6895 2.10917 49.7998C2.23697 36.4729 10.672 24.1662 18.5957 20.8504Z" fill="white"/>
<path d="M19.7442 16.6425H37.0615C37.381 16.6425 37.6366 16.5149 37.8922 16.3236C41.0873 12.8803 43.0043 5.86615 43.0043 1.08376C43.0043 0.446112 42.4931 -0.000244141 41.918 -0.000244141H14.8877C14.2487 -0.000244141 13.8014 0.509877 13.8014 1.08376C13.8014 5.86615 15.7184 12.8803 18.9135 16.3236C19.1052 16.5787 19.4247 16.6425 19.7442 16.6425ZM40.7678 2.23154C40.5121 6.24874 38.9785 11.6688 36.5503 14.4745H20.2554C17.8272 11.605 16.2935 6.24874 16.0379 2.23154H40.7678Z" fill="white"/>
<path d="M20.3838 49.7372C22.0452 50.7574 24.5374 51.2038 25.8793 51.3313V53.5631C25.8793 54.2007 26.3905 54.6471 26.9656 54.6471H30.3524C30.6719 54.6471 30.9275 54.5195 31.1192 54.3283C31.3109 54.137 31.4387 53.8181 31.4387 53.5631V51.0125C34.0587 50.3748 36.7425 48.143 37.062 44.6359C37.4454 40.2999 34.5699 38.5145 33.9948 38.1957C33.6753 38.0044 33.1002 37.8131 32.4611 37.558C31.3109 37.1117 29.7134 36.474 28.5632 35.7088C28.1159 35.4538 27.9881 35.0074 28.052 34.7523C28.1159 34.4335 28.6271 34.306 28.8827 34.306C30.8636 34.1785 33.9309 35.1987 33.9948 35.1987C34.3143 35.3262 34.6338 35.2625 34.8894 35.1349C35.145 35.0074 35.3367 34.7523 35.4006 34.4335L36.2313 30.7989C36.3591 30.3525 36.1674 29.9062 35.7201 29.6511C34.6338 28.9497 32.7167 28.6309 31.4387 28.5034V26.5266C31.4387 25.889 30.9275 25.4426 30.3524 25.4426H26.9656C26.3266 25.4426 25.8793 25.9527 25.8793 26.5266V29.0135C21.9174 30.1612 20.0004 32.7756 20.4477 36.6015C20.9589 40.81 26.4544 42.5955 27.6046 42.8505C29.9051 43.4882 29.8412 43.8708 29.7134 44.4446C29.5856 45.0185 27.6685 45.4011 25.8154 45.0185C24.2179 44.6997 22.812 43.9345 22.812 43.9345C22.4925 43.807 22.173 43.7432 21.8535 43.8708C21.534 43.9983 21.3423 44.2534 21.2145 44.5722L19.9365 48.5256C19.7448 48.972 19.9365 49.4821 20.3838 49.7372ZM22.9398 46.4214C23.5789 46.6764 24.4096 46.9953 25.3681 47.1866C27.6685 47.6329 31.3109 47.4416 31.886 44.9548C32.525 42.0216 29.7773 41.1926 28.2437 40.81C26.4544 40.2999 22.9398 38.7058 22.6842 36.4102C22.3647 33.477 23.7706 31.7554 27.2212 31.054C27.7324 30.9264 28.1159 30.4801 28.1159 29.97V27.6744H29.2661V29.5236C29.2661 30.0975 29.7134 30.6076 30.2885 30.6076C31.3109 30.6714 32.9085 30.9264 33.867 31.2453L33.4836 32.8394C32.2694 32.5206 30.2885 32.0742 28.691 32.2017C27.2851 32.3293 26.1988 33.0944 25.8793 34.306C25.5598 35.5813 26.1349 36.9204 27.349 37.6855C28.691 38.5145 30.4163 39.2159 31.6304 39.726C32.2055 39.9173 32.7167 40.1724 32.9724 40.2999C33.3558 40.4912 35.145 41.639 34.8894 44.5722C34.6338 47.3141 32.3333 48.972 30.2885 49.0995C29.7134 49.1633 29.2661 49.6096 29.2661 50.1835V52.5428H28.1159V50.3748C28.1159 49.8009 27.6685 49.2908 27.0934 49.2908C26.2627 49.227 23.9623 48.972 22.3647 48.2706L22.9398 46.4214Z" fill="white"/>
</g>
<defs>
<clipPath id="clip0">
<rect width="57" height="63" fill="white"/>
</clipPath>
</defs>
</svg>
