<svg width="53" height="55" viewBox="0 0 53 55" fill="none" xmlns="http://www.w3.org/2000/svg">
<g clip-path="url(#clip0)">
<path d="M24.7381 24.2617C25.1113 24.1018 25.3246 23.7818 25.3246 23.4086V0.906482C25.3246 0.373257 24.898 0 24.4181 0C18.2861 0 12.5272 2.34619 8.10147 6.61198C7.9415 6.77195 7.83485 7.03856 7.83485 7.25185C7.83485 7.51847 7.9415 7.73176 8.10147 7.89172L23.7783 24.0484C23.9382 24.2084 24.2048 24.315 24.4181 24.315C24.5248 24.3684 24.6314 24.315 24.7381 24.2617ZM23.5117 21.169L10.0744 7.30518C13.807 3.99918 18.4993 2.07958 23.5117 1.86629V21.169Z" fill="white"/>
<path d="M24.3117 28.2075C24.3117 27.9408 24.2583 27.6742 24.0451 27.4609L8.42158 11.3576C8.26161 11.1976 7.995 11.0909 7.78171 11.0909C7.5151 11.0909 7.30181 11.1976 7.14184 11.3576C2.50278 15.7833 -0.00337219 21.7554 -0.00337219 28.1541C-0.00337219 33.0598 1.48966 37.6988 4.31575 41.698C4.47572 41.9646 4.79565 42.0713 5.06226 42.0713C5.22223 42.0713 5.43552 42.018 5.59549 41.9113L23.9384 28.9006C24.1517 28.7407 24.3117 28.4741 24.3117 28.2075ZM5.27555 39.8851C2.98269 36.3658 1.80959 32.3666 1.80959 28.1541C1.80959 22.5553 3.88917 17.3297 7.72838 13.3305L21.9655 28.0475L5.27555 39.8851Z" fill="white"/>
<path d="M52.0386 27.408C51.9853 27.0347 51.932 26.6615 51.8787 26.2882C51.7187 25.4884 51.5587 24.6352 51.2921 23.8887C51.1855 23.5688 51.0788 23.1955 50.9722 22.8756C50.7056 22.1824 50.4389 21.4359 50.119 20.7427C49.959 20.4227 49.8524 20.1561 49.6924 19.8362C49.3725 19.1963 48.9992 18.5565 48.626 17.9166C48.466 17.65 48.306 17.3834 48.0928 17.1168C47.6662 16.4769 47.1863 15.837 46.653 15.2505C46.4398 15.0372 46.2265 14.7706 46.0665 14.5573C45.5866 14.024 45.1067 13.5441 44.5735 13.0642C44.3602 12.851 44.0936 12.6377 43.8803 12.4244C43.3471 11.9445 42.8138 11.5179 42.2273 11.1446C41.9607 10.9847 41.6941 10.7714 41.4274 10.6114C40.7876 10.1848 40.201 9.81157 39.5612 9.49164C39.2945 9.33167 38.9746 9.17171 38.708 9.06506C37.9615 8.6918 37.1617 8.37187 36.4151 8.10526C36.0952 7.99861 35.7753 7.89197 35.4553 7.78532C34.7088 7.57203 33.909 7.35874 33.1091 7.19877C32.7359 7.14545 32.3626 7.03881 31.9894 6.98548C31.1362 6.82552 30.2297 6.77219 29.2699 6.71887C28.95 6.71887 28.6301 6.71887 28.3101 6.71887C27.5636 6.71887 26.9237 7.35874 26.9237 8.10526V29.8608L9.27401 42.4449C8.95407 42.6582 8.79411 42.9781 8.68746 43.3514C8.63414 43.7247 8.68746 44.0446 8.90075 44.3645L9.0074 44.4712C9.38065 45.0044 9.80723 45.5376 10.3405 46.1242C10.5537 46.3375 10.767 46.6041 10.9803 46.8174C11.4602 47.2973 11.9401 47.8305 12.4734 48.2571C12.6866 48.4704 12.9533 48.6837 13.1665 48.8436C13.8064 49.3768 14.4463 49.8567 15.0328 50.2833C15.2461 50.4433 15.4594 50.5499 15.726 50.7099L15.8327 50.8166C16.4725 51.1898 17.1124 51.5631 17.7523 51.883C18.0722 52.043 18.3388 52.1496 18.6588 52.3096C19.2986 52.6295 19.9918 52.8961 20.7917 53.1627C21.1116 53.2694 21.4315 53.376 21.8048 53.4827C22.6579 53.7493 23.4045 53.9093 24.2043 54.0692C24.5776 54.1225 24.9508 54.1759 25.3241 54.2292C26.3372 54.3892 27.4036 54.4425 28.3634 54.4425C28.3634 54.4425 28.4168 54.4425 28.4701 54.4425C28.8967 54.4425 29.3233 54.4425 29.7498 54.3892C30.8696 54.3358 32.0427 54.1759 33.1091 53.9626C33.6957 53.8559 34.2289 53.696 34.8155 53.536C36.5751 53.0561 38.2281 52.3629 39.7745 51.5097C41.3208 50.6566 42.8138 49.6435 44.1469 48.417C44.8934 47.7239 45.6399 47.0307 46.2798 46.2841C47.5062 44.9511 48.5193 43.458 49.3725 41.8584C50.2257 40.312 50.9188 38.659 51.3988 36.8994C51.5587 36.3128 51.7187 35.7263 51.8253 35.1931C52.0386 34.0733 52.1986 32.9535 52.2519 31.7804C52.2519 31.3539 52.3052 30.9273 52.3052 30.5007V30.4474C52.2519 29.4876 52.1986 28.4744 52.0386 27.408ZM50.3856 31.7271C50.3323 32.7936 50.1723 33.8067 50.0124 34.8731C49.9057 35.4064 49.7991 35.8863 49.6391 36.4728C49.2125 38.0725 48.5727 39.6188 47.7728 41.0585C46.973 42.4982 46.0132 43.8846 44.9467 45.111C44.3602 45.8042 43.667 46.4441 42.9738 47.084C41.7474 48.2038 40.361 49.1636 38.9213 49.9101C37.4816 50.7099 35.9352 51.2965 34.3356 51.7764C33.8023 51.9363 33.2691 52.043 32.7359 52.1496C31.7228 52.3629 30.6563 52.4695 29.5899 52.5229C29.2166 52.5229 28.79 52.5762 28.4168 52.5762H28.3634C27.457 52.5762 26.4972 52.5229 25.5374 52.3629C25.1641 52.3096 24.8442 52.2563 24.4709 52.2029C23.7777 52.0963 23.0312 51.883 22.2847 51.6697C21.9648 51.5631 21.6448 51.4564 21.3782 51.4031C20.6317 51.1365 19.9918 50.9232 19.4053 50.6566C19.1387 50.5499 18.8721 50.39 18.6054 50.2833C18.0189 49.9634 17.4323 49.6435 16.8458 49.3235L16.6858 49.2169C16.4725 49.1102 16.2593 48.9503 16.0993 48.8436C15.5661 48.4704 14.9795 48.0438 14.393 47.5106C14.1797 47.3506 13.9664 47.1373 13.7531 46.924C13.2732 46.4974 12.7933 46.0175 12.3667 45.591C12.1534 45.3777 11.9935 45.1644 11.7802 44.9511C11.4069 44.5245 11.087 44.0979 10.767 43.7247L28.5234 31.1406C28.79 30.9806 28.8967 30.714 28.8967 30.394V8.53184C29.0566 8.53184 29.1633 8.53184 29.3233 8.53184C30.1764 8.58516 31.0296 8.63848 31.8294 8.74513C32.1493 8.79845 32.5226 8.85177 32.8425 8.90509C33.589 9.06506 34.2822 9.22503 35.0288 9.49164C35.3487 9.59828 35.6153 9.70493 35.9352 9.81157C36.6818 10.0782 37.3749 10.3981 38.0681 10.7181C38.3347 10.8247 38.6014 10.9847 38.868 11.1446C39.4545 11.4646 39.9877 11.7845 40.5743 12.1578C40.8409 12.3177 41.0542 12.4777 41.2675 12.6377C41.8007 13.0109 42.2806 13.4375 42.8138 13.8641C43.0271 14.0774 43.2404 14.2373 43.4537 14.4506C43.9336 14.8772 44.4135 15.3571 44.7868 15.837C45.0001 16.0503 45.16 16.2636 45.3733 16.4769C45.8532 17.0101 46.2798 17.5967 46.653 18.1832C46.813 18.4498 46.973 18.6631 47.133 18.9297C47.5062 19.5163 47.8261 20.1028 48.0928 20.6894C48.2527 20.956 48.3594 21.2226 48.466 21.4892C48.7326 22.1291 48.9992 22.7689 49.2125 23.4621C49.3192 23.7821 49.4258 24.0487 49.4791 24.3686C49.6924 25.0618 49.8524 25.8083 50.0124 26.5548C50.0657 26.9281 50.119 27.248 50.1723 27.6213C50.279 28.5811 50.3856 29.5409 50.3856 30.4474V30.5007C50.4389 30.9806 50.3856 31.3539 50.3856 31.7271Z" fill="white"/>
</g>
<defs>
<clipPath id="clip0">
<rect width="52.256" height="54.4422" fill="white"/>
</clipPath>
</defs>
</svg>
