<svg width="65" height="63" viewBox="0 0 65 63" fill="none" xmlns="http://www.w3.org/2000/svg">
<g clip-path="url(#clip0)">
<path d="M54.3308 21.3863C54.3308 9.57484 44.4494 -0.000244141 32.2601 -0.000244141C20.0708 -0.000244141 10.1894 9.57484 10.1894 21.3863C7.0382 21.7665 4.05865 23.7626 4.05865 28.3963V39.5649C4.05865 44.7927 7.8352 46.6937 11.4156 46.6937H14.9714C15.6485 46.6937 16.1975 46.1617 16.1975 45.5056V22.5032C16.1975 21.847 15.6485 21.315 14.9714 21.315H12.6417C12.6417 10.816 21.4252 2.30475 32.2601 2.30475C43.095 2.30475 51.8785 10.816 51.8785 21.315H49.5488C48.8717 21.315 48.3227 21.847 48.3227 22.5032V45.4699C48.3227 46.1261 48.8717 46.6581 49.5488 46.6581H51.8785C51.5352 54.8206 47.4889 56.7335 39.4086 57.0781V56.282C39.4086 54.9696 38.3107 53.9057 36.9562 53.9057H29.2438C27.8893 53.9057 26.7915 54.9696 26.7915 56.282V60.1435C26.7915 61.4559 27.8893 62.5198 29.2438 62.5198H36.9808C38.3352 62.5198 39.4331 61.4559 39.4331 60.1435V59.4544C47.2069 59.1098 53.9262 57.5533 54.3308 46.5868C57.482 46.2066 60.4615 44.2105 60.4615 39.5767V28.4082C60.4615 23.7507 57.4943 21.7665 54.3308 21.3863ZM13.7452 23.6081V44.2818H11.3542C9.53954 44.2818 6.44965 43.664 6.44965 39.5292V28.3607C6.44965 24.2616 9.50276 23.6081 11.3542 23.6081H13.7452ZM36.9808 58.3494V60.1554H29.2438V56.2939H36.9808V58.3494ZM58.0092 39.5649C58.0092 43.664 54.9561 44.3174 53.1046 44.3174H50.775V23.6913H53.1659C54.9807 23.6913 58.0705 24.3091 58.0705 28.4439L58.0092 39.5649Z" fill="white"/>
</g>
<defs>
<clipPath id="clip0">
<rect width="64.52" height="62.52" fill="white"/>
</clipPath>
</defs>
</svg>
